<svg xmlns="http://www.w3.org/2000/svg" xmlns:svg="http://www.w3.org/2000/svg" id="svg7178" width="302" height="91.827" version="1.1" viewBox="0 0 302 91.827"><defs id="defs7180"><linearGradient id="linearGradient7020" x1="0" x2="1" y1="0" y2="0" gradientTransform="matrix(23.3924,0,0,-20.6709,761.9253,521.0742)" gradientUnits="userSpaceOnUse" spreadMethod="pad"><stop id="stop7022" offset="0" style="stop-opacity:1;stop-color:#fdb810"/><stop id="stop7024" offset="1" style="stop-opacity:1;stop-color:#ed2228"/></linearGradient><linearGradient id="linearGradient7002" x1="0" x2="1" y1="0" y2="0" gradientTransform="matrix(23.8076,0,0,-20.329,761.5082,539.5621)" gradientUnits="userSpaceOnUse" spreadMethod="pad"><stop id="stop7004" offset="0" style="stop-opacity:1;stop-color:#fdb810"/><stop id="stop7006" offset="1" style="stop-opacity:1;stop-color:#ed2228"/></linearGradient><linearGradient id="linearGradient6984" x1="0" x2="1" y1="0" y2="0" gradientTransform="matrix(22.9113,0,0,-19.0404,762.0691,556.4311)" gradientUnits="userSpaceOnUse" spreadMethod="pad"><stop id="stop6986" offset="0" style="stop-opacity:1;stop-color:#febc16"/><stop id="stop6988" offset="1" style="stop-opacity:1;stop-color:#ed2228"/></linearGradient></defs><metadata id="metadata7183"/><g id="layer1" transform="translate(-179.67127,-606.20822)"><path id="path6960" d="m 480.51439,623.6535 -29.37898,-0.0215 c 0,0 -6.76587,-10.71926 -21.24591,-10.71926 -14.47869,0 -22.82861,12.74647 -23.48594,17.15918 l 0.0323,-6.38604 -25.72193,0 0,-10.52126 -29.85984,0 0,10.60882 -23.71493,0 0,19.98245 c -1.448,-5.62364 -7.83135,-19.46925 -23.90351,-19.7858 l -47.31132,0 0,30.13733 41.83719,0 0,12.80305 -40.53332,0 -15.02556,30.03631 c 0,0 54.42204,0.0889 59.83555,0.0889 9.16081,0 14.13116,-3.36881 16.52744,-5.97925 l -2.63064,5.89035 41.94495,0.0714 c 7.12013,-0.0714 22.69795,-7.77476 22.69795,-24.27123 0,-16.49511 0,-18.63951 0,-18.63951 l 25.84047,0 0,-6.98005 c 4.06788,12.49728 14.66591,16.68774 20.95631,17.1942 12.04874,0.96444 19.08266,-5.01076 23.56675,-10.72331 l -0.18588,12.87982 -40.12652,0 -14.32514,30.13868 60.10224,0.31655 c 13.12093,-0.0122 23.90755,-10.70446 24.10825,-24.42614 0.35291,-23.79306 0,-48.85362 0,-48.85362 z m -129.93103,42.73967 -19.7575,0 -3.33242,6.26615 0,-18.58697 23.08992,0 0,12.32082 z" style="fill:#f69321;fill-opacity:1;fill-rule:nonzero;stroke:none;stroke-width:.5530985;stroke-linecap:round;stroke-linejoin:round;stroke-miterlimit:4;stroke-dasharray:none;stroke-opacity:1"/><path id="path6962" d="m 259.6474,628.13894 0,21.61364 42.13623,0 0,21.39408 -41.89647,0 -10.95094,21.83051 55.23022,0 c 8.79578,-0.25863 19.04225,-9.0773 19.04225,-19.88681 l 0,-24.63627 c -0.27883,-8.59238 -5.45796,-20.05788 -20.94823,-20.31515 l -42.61306,0" style="fill:#ed2328;fill-opacity:1;fill-rule:nonzero;stroke:none"/><path id="path6964" d="m 331.06562,628.13894 0,21.39678 23.80788,0 0,20.96304 -21.42776,0 -10.95095,22.26154 c 0,0 27.61309,-0.21686 33.09125,-0.21686 14.969,0 20.70848,-12.77341 20.70848,-20.31516 0,-8.86177 0,-22.26018 0,-22.26018 l 25.7098,0 0,-21.82916 -25.47543,0 0,-11.02099 -21.65539,0 0,11.23786 -23.80788,-0.21687" style="fill:#ed2328;fill-opacity:1;fill-rule:nonzero;stroke:none"/><path id="path6966" d="m 413.42941,670.71428 -10.71118,21.61229 c 0,0 43.08584,0 52.1335,0 17.20228,0 21.66213,-12.10665 21.66213,-20.96304 0,-13.18289 0,-43.65562 0,-43.65562 l -21.18664,0 0,43.00637 -41.89781,0" style="fill:#ed2328;fill-opacity:1;fill-rule:nonzero;stroke:none"/><g id="g6974" transform="matrix(0,-1.3469799,-1.3469799,0,929.0102,1681.8288)"><g id="g6976"><g id="g6982"><path id="path6990" d="m 774.088,545.088 c 0.528,-1.105 4.628,-5.89 6.303,-6.778 l 3.002,0 0,6.337 c 0,0 0.437,-0.137 1.021,-0.505 l -0.038,3.7 c -2.115,1.985 -3.199,3.419 -4.675,6.119 l -3.692,-1.159 c 0.298,-0.606 0.666,-1.315 0.942,-1.813 -0.538,-0.437 -1.252,-0.865 -1.877,-1.078 -1.186,2.141 -2.039,4.089 -2.553,5.657 l -3.852,-1.077 c 0.242,-0.864 0.675,-1.778 1.06,-2.317 l -6.5,1.023 0.015,-3.36 0.548,-0.246 -0.082,-6.094 -0.481,-0.054 0,-3.182 10.859,-2.008 0,6.835 z m 5.178,2.741 c 0.212,-0.215 0.438,-0.432 0.68,-0.647 l 0,-3.803 c -0.805,0.304 -2.172,1.713 -2.708,2.645 0.694,0.414 1.64,1.191 2.028,1.805 z m -11.679,-5.195 0,6.468 2.581,-0.307 0,-6.507 -2.581,0.346" style="fill:url(#linearGradient6984);stroke:none"/></g></g></g><g id="g6992" transform="matrix(0,-1.3469799,-1.3469799,0,929.0102,1681.8288)"><g id="g6994"><g id="g7000"><path id="path7008" d="m 775.282,521.633 c 0.459,-1.037 2.312,-1.107 3.243,-1.402 0.236,0.562 0.497,0.861 0.717,1.033 l -0.012,-0.888 4.815,-0.281 0,11.444 -2.585,0.35 0,0.733 3.289,-0.517 0,2.916 -3.513,0.554 0,0.952 -3.868,0.52 0.017,-0.989 -3.419,0.593 c 0,0 -0.225,0.396 -0.385,1.151 l -3.804,0.143 c -0.015,-0.288 0.192,-0.755 0.192,-0.755 l -1.878,0.361 c -0.303,0.062 -0.508,0.522 -0.577,1.094 l -4.285,0.055 c 0,0 -0.56,-3.592 1.493,-3.988 l 1.429,-0.2 -3.034,-0.95 c 1.123,-1.475 2.504,-2.874 3.435,-3.952 l -3.274,0.323 0,-3.018 3.113,-0.396 c -0.802,-0.539 -2.247,-1.939 -2.727,-2.802 l 3.175,-1.833 c 1.099,1.315 2.702,2.762 3.757,3.091 l 0,-3.629 3.668,-0.466 -0.057,4.615 1.053,-0.074 c -0.024,-1.038 0.022,-3.788 0.022,-3.788 z m 5.135,1.51 -1.154,-0.324 -0.006,-0.346 c -1.239,0.226 -1.118,0.858 -1.055,0.921 0.067,0.134 0.302,0.18 0.579,0.142 l 1.604,0.109 0.032,-0.502 z m -1.187,6.934 c 0,0 0.643,-0.647 1.155,-1.044 -0.739,0 -2.54,0.966 -2.453,2.888 l 1.27,-0.07 0.028,-1.774 z m -1.894,2.964 0.048,-1.059 -3.12,-0.993 0,1.327 1.31,0.151 c 0,0 -0.355,0.448 -0.419,0.843 l 2.181,-0.269 z m -10.497,0.989 c -0.124,0.174 -0.079,0.269 -0.021,0.388 l 4.174,-0.583 c 0.102,-0.27 0.243,-0.556 0.429,-0.883 l -0.825,0.089 0,-2.82 c -1.443,0.79 -3.145,2.944 -3.757,3.809 z m 7.425,-3.126 c 0.406,-0.693 0.93,-1.576 1.644,-2.338 l -1.644,0.058 0,2.28 z m 1.677,-2.375 c 0.302,-0.318 0.634,-0.613 1.01,-0.861 0.577,-0.41 2.086,-1.041 3.484,-1.147 l 0,-0.504 -4.478,0.393 c -0.006,0.003 -0.01,0.003 -0.016,0.003 l 0,2.116" style="fill:url(#linearGradient7002);stroke:none"/></g></g></g><g id="g7010" transform="matrix(0,-1.3469799,-1.3469799,0,929.0102,1681.8288)"><g id="g7012"><g id="g7018"><path id="path7026" d="m 780.922,501.674 2.902,-0.408 0.012,4.611 0.877,-0.156 0,3.616 -4.585,0.798 0,3.396 -12.854,2.102 -0.01,-2.28 c -0.475,1.047 -0.809,2.185 -1.214,3.286 l 12.537,-1.707 c 1.802,-0.995 5.537,-1.887 6.116,-1.724 l 0.048,3.125 c -4.767,1.186 -5.249,1.749 -8.041,3.879 l -5.585,-0.107 c 0.097,-0.267 0.675,-1.076 1.252,-1.399 l -9.226,1.237 0,-2.909 2.734,-0.373 -2.703,-1.406 c 0.336,-1.617 1.173,-3.682 2.358,-5.12 l 1.715,0.995 -0.011,-2.778 -1.679,1.278 c -1.276,-1.489 -2.047,-2.89 -2.481,-4.775 l 2.842,-1.942 c 0.723,2.094 0.929,2.823 1.31,3.747 l -0.011,-2.777 12.903,-1.994 0,4.469 0.794,-0.091 0,-4.593 z m -10.868,5.357 0,4.312 1.047,-0.148 0,-4.312 -1.047,0.148 z m 3.023,-0.427 0,4.31 1.081,-0.153 0,-4.312 -1.081,0.155 z m 4.128,-0.587 -1.072,0.152 0,4.311 1.072,-0.153 0,-4.31" style="fill:url(#linearGradient7020);stroke:none"/></g></g></g><path id="path7028" d="m 188.29384,613.81246 c 0.70986,0 1.71875,0.005 2.01373,0.24919 0.70447,0.57786 0.61288,1.15706 0.61288,2.26428 0,1.03852 -0.0511,1.875 -0.71524,2.5404 -0.19262,0.19128 -1.1611,0.12123 -1.91137,0.12123 l -2.13092,0 0,-5.1751 2.13092,0 z m -3.82139,6.51669 3.5493,0 c 1.22171,0 2.44208,0.13335 3.191,-0.4701 0.9092,-0.70446 1.23787,-2.03393 1.23787,-3.30817 0,-1.37527 -0.21148,-2.98356 -1.08028,-3.65571 -0.82704,-0.63847 -2.16729,-0.46201 -3.34859,-0.46201 l -3.5493,0 0,7.89599" style="fill:#231f20;fill-opacity:1;fill-rule:nonzero;stroke:none"/><path id="path7030" d="m 226.28406,612.43181 6.69449,0 0,1.316 -2.64412,0 0,6.59885 -1.42242,0 0,-6.59885 -2.62795,0 0,-1.316" style="fill:#231f20;fill-opacity:1;fill-rule:nonzero;stroke:none"/><path id="path7032" d="m 201.45922,612.43181 6.69314,0 0,1.316 -2.64547,0 0,6.59885 -1.42241,0 0,-6.59885 -2.62526,0 0,-1.316" style="fill:#231f20;fill-opacity:1;fill-rule:nonzero;stroke:none"/><path id="path7034" d="m 237.54886,612.40083 1.56114,0 2.44343,6.16917 2.39223,-6.18669 1.52478,0 -2.97952,7.87984 -1.96255,0 -2.97951,-7.86232" style="fill:#231f20;fill-opacity:1;fill-rule:nonzero;stroke:none"/><path id="path7036" d="m 246.64366,612.38467 6.64196,0 0,1.33081 -5.20608,0 0,1.94908 5.16163,0 0,1.34563 -5.16163,0 0,1.96928 5.20877,0 0,1.31062 -6.64465,0 0,-7.90542" style="fill:#231f20;fill-opacity:1;fill-rule:nonzero;stroke:none"/><path id="path7038" d="m 209.85898,612.38467 6.64466,0 0,1.33081 -5.20608,0 0,1.94908 5.16163,0 0,1.34563 -5.16163,0 0,1.96928 5.20877,0 0,1.31062 -6.64735,0 0,-7.90542" style="fill:#231f20;fill-opacity:1;fill-rule:nonzero;stroke:none"/><path id="path7040" d="m 193.79221,612.38467 6.64331,0 0,1.33081 -5.20608,0 0,1.94908 5.16298,0 0,1.34563 -5.16298,0 0,1.96928 5.21012,0 0,1.31062 -6.64735,0 0,-7.90542" style="fill:#231f20;fill-opacity:1;fill-rule:nonzero;stroke:none"/><path id="path7042" d="m 284.11125,607.22169 3.88065,0 5.92267,10.57379 0,-10.57379 2.88524,0 0,13.65164 -4.47332,0 -5.22359,-9.55682 -0.035,9.55682 -2.95663,0 0,-13.65164" style="fill:#231f20;fill-opacity:1;fill-rule:nonzero;stroke:none"/><path id="path7044" d="m 312.49751,607.22169 3.8793,0 5.92132,10.57379 0,-10.57379 2.88658,0 0,13.65164 -4.47063,0 -5.22763,-9.55682 -0.035,9.55682 -2.95393,0 0,-13.65164" style="fill:#231f20;fill-opacity:1;fill-rule:nonzero;stroke:none"/><path id="path7046" d="m 306.24482,615.83698 -3.13711,0 1.50862,-4.3494 1.62849,4.3494 z m -4.95149,5.07676 0.85533,-2.63874 4.90032,0 0.96174,2.63874 3.04821,0 -4.76157,-13.70552 -3.35936,0 -4.76563,13.70552 3.12096,0" style="fill:#231f20;fill-opacity:1;fill-rule:nonzero;stroke:none"/><path id="path7048" d="m 278.06601,607.24728 -3.54929,0 c -2.23599,0 -4.64708,1.82921 -4.64708,4.06788 l 0,5.46066 c 0,2.23598 2.41109,4.06384 4.64708,4.06384 l 3.54929,0 c 2.23464,0 4.64573,-1.82786 4.64573,-4.06384 l 0,-5.46066 c 0,-2.23867 -2.41109,-4.06788 -4.64573,-4.06788 z m -1.77262,10.70984 c -3.67457,0 -3.7271,-0.24919 -3.7271,-3.9251 0,-3.67052 0.33136,-3.90085 3.7271,-3.90085 3.30952,0 3.72305,0.33674 3.72305,3.90085 0,3.25835 -0.21283,3.9251 -3.72305,3.9251" style="fill:#231f20;fill-opacity:1;fill-rule:nonzero;stroke:none"/><path id="path7050" d="m 261.65036,617.95712 c -3.67456,0 -3.72979,-0.24919 -3.72979,-3.9251 0,-3.67052 0.33271,-3.90085 3.72979,-3.90085 2.56061,0 3.38362,0.21012 3.63146,1.95312 l 2.69127,0 0,-0.76913 c 0,-2.23867 -2.15112,-3.95338 -4.42618,-4.06788 l -3.13173,0 c -2.2764,0 -5.18587,0.97118 -5.18587,4.06788 0,0 -0.0821,1.76724 -0.0821,2.68858 0,0.91863 0.0821,2.77208 0.0821,2.77208 0,2.82057 2.78016,4.06384 4.85047,4.06384 l 3.5951,0 c 2.02316,-0.0269 3.92105,-1.12473 4.12849,-3.10613 0.0862,-0.96984 0.0862,-1.98276 0.0862,-1.98276 l -2.70069,0 c -0.1778,1.78474 -0.76374,2.20635 -3.53852,2.20635" style="fill:#231f20;fill-opacity:1;fill-rule:nonzero;stroke:none"/><path id="path7052" d="m 221.58848,618.90674 c -2.13765,0 -2.22116,-0.14817 -2.22116,-2.43803 0,-2.28044 0.093,-2.53637 2.16459,-2.53637 1.89117,0 2.14844,0.1549 2.31142,1.39682 l 1.54094,0 c -0.0215,-2.61448 -1.93291,-2.99702 -2.91755,-3.04956 l -1.82247,0 c -1.32408,0 -2.90947,1.22575 -2.90947,3.15193 l 0,2.23869 c 0,1.75646 1.71605,2.76938 2.9216,2.76938 l 2.09185,0 c 1.17996,-0.0188 2.61449,-0.58997 2.61449,-2.962 l -1.49245,0 c -0.17915,1.21093 -0.36368,1.42914 -2.28179,1.42914" style="fill:#231f20;fill-opacity:1;fill-rule:nonzero;stroke:none"/><path id="path7054" d="m 234.63534,620.32107 0,-7.92293 1.4938,0 0,7.92293 -1.4938,0 z" style="fill:#231f20;fill-opacity:1;fill-rule:nonzero;stroke:none"/><path id="path7056" d="m 451.56914,638.65885 c 0,11.7066 -9.48812,21.19877 -21.20012,21.19877 -11.70121,0 -21.19337,-9.49217 -21.19337,-21.19877 0,-11.70525 9.49216,-21.19472 21.19337,-21.19472 11.712,0 21.20012,9.48947 21.20012,21.19472" style="fill:#ed2328;fill-opacity:1;fill-rule:nonzero;stroke:none"/></g></svg>